<?xml version="1.0" standalone="no"?>
<!DOCTYPE svg PUBLIC "-//W3C//DTD SVG 20010904//EN"
 "http://www.w3.org/TR/2001/REC-SVG-20010904/DTD/svg10.dtd">
<svg version="1.0" xmlns="http://www.w3.org/2000/svg"
 width="270.000000pt" height="270.000000pt" viewBox="0 0 270.000000 270.000000"
 preserveAspectRatio="xMidYMid meet">
<metadata>
Created by potrace 1.11, written by Peter Selinger 2001-2013
</metadata>
<g transform="translate(0.000000,270.000000) scale(0.100000,-0.100000)"
fill="#000000" stroke="none">
<path d="M1229 2676 c-2 -2 -26 -6 -54 -9 -83 -10 -234 -46 -280 -66 -11 -6
-49 -22 -85 -37 -189 -81 -365 -218 -501 -389 -64 -80 -140 -202 -160 -257 -7
-21 -17 -38 -21 -38 -4 0 -7 -3 -6 -7 1 -5 -4 -21 -11 -38 -15 -34 -13 -30
-45 -150 -13 -49 -28 -119 -34 -155 -11 -67 -9 -315 3 -385 24 -143 91 -338
151 -435 8 -14 18 -33 21 -43 3 -9 10 -17 15 -17 5 0 6 -5 3 -10 -3 -5 -2 -10
3 -10 4 0 18 -18 31 -40 12 -22 26 -40 31 -40 5 0 11 -8 14 -18 7 -21 144
-162 205 -212 45 -36 129 -95 170 -118 55 -32 172 -88 201 -97 3 -1 43 -13 90
-28 131 -41 254 -57 415 -52 153 4 186 8 290 37 88 24 84 23 118 36 16 7 33
12 38 12 44 0 352 187 384 234 8 11 15 17 15 12 0 -9 105 98 140 143 14 18 37
47 52 64 15 18 28 35 28 39 0 4 6 13 13 20 25 28 121 218 133 263 1 6 9 29 18
53 8 23 13 42 9 42 -3 0 -1 6 5 13 6 7 14 28 17 47 3 19 11 60 17 90 7 32 12
129 11 235 0 162 -3 190 -28 280 -14 55 -28 109 -30 121 -1 11 -8 29 -13 40
-6 10 -23 48 -39 84 -31 73 -92 183 -105 188 -4 2 -8 8 -8 14 0 27 -245 298
-270 298 -4 0 -18 10 -31 21 -25 22 -86 64 -129 87 -53 30 -165 86 -175 88 -5
1 -45 14 -87 28 -120 41 -221 57 -379 62 -80 2 -147 3 -150 0z"/>
</g>
</svg>
